<svg width="518" height="518" viewBox="0 0 518 518" fill="none" xmlns="http://www.w3.org/2000/svg">
<path fill-rule="evenodd" clip-rule="evenodd" d="M421.465 381.688C432.144 392.369 449.461 392.369 460.14 381.688V381.688C470.816 371.01 470.816 353.698 460.14 343.02L375.763 258.628L460.14 174.237C470.816 163.558 470.816 146.247 460.14 135.568V135.568C449.461 124.887 432.144 124.887 421.465 135.568L298.427 258.628L421.465 381.688Z" fill="#FED812"/>
<path fill-rule="evenodd" clip-rule="evenodd" d="M283.86 59.9093C287.768 45.3213 279.113 30.3276 264.527 26.4187V26.4187C249.94 22.5094 234.945 31.1682 231.037 45.758L200.155 161.032L84.9009 130.145C70.3136 126.235 55.3189 134.894 51.4102 149.484V149.484C47.5021 164.072 56.1572 179.066 70.7426 182.974L238.823 228.019L283.86 59.9093Z" fill="#FED812"/>
<path fill-rule="evenodd" clip-rule="evenodd" d="M70.7433 335.027C56.1579 338.936 47.5028 353.929 51.411 368.517V368.517C55.3196 383.107 70.3144 391.766 84.9016 387.857L200.155 356.969L231.037 472.243C234.946 486.833 249.941 495.492 264.528 491.583V491.583C279.113 487.674 287.768 472.68 283.86 458.092L238.823 289.982L70.7433 335.027Z" fill="#FED812"/>
<path d="M223.233 259.803L175.384 307.661L236.905 290.569L257.411 365.774L277.918 290.569L349.693 311.079L298.425 259.803L349.693 208.526L277.918 229.037L257.411 153.832L240.322 229.037L171.966 208.526L223.233 259.803Z" fill="#FED812" stroke="#FED812" stroke-width="19"/>
<path d="M318.966 157.355L431.322 127.244C447.509 122.906 464.149 132.515 468.487 148.705C472.824 164.893 463.219 181.532 447.033 185.87L278.953 230.915L276.055 231.691L275.279 228.793L230.242 60.6831C225.905 44.4947 235.51 27.8559 251.695 23.5182C267.883 19.18 284.523 28.7887 288.86 44.9792L318.966 157.355Z" fill="#630567" stroke="white" stroke-width="6"/>
<path d="M141.175 260.219L58.9192 177.948C47.0713 166.098 47.0713 146.888 58.9192 135.038C70.7701 123.185 89.9864 123.185 101.837 135.038L224.875 258.097L226.996 260.219L224.875 262.34L101.837 385.4C89.9864 397.253 70.7701 397.253 58.9192 385.4C47.0713 373.55 47.0713 354.339 58.9192 342.489L141.175 260.219Z" fill="#FF4B40" stroke="white" stroke-width="6"/>
<path d="M318.967 360.645L288.861 473.021C284.524 489.211 267.884 498.82 251.696 494.482C235.511 490.144 225.906 473.505 230.243 457.317L275.28 289.207L276.056 286.309L278.954 287.085L447.034 332.13C463.22 336.468 472.824 353.107 468.487 369.295C464.15 385.485 447.51 395.094 431.323 390.756L318.967 360.645Z" fill="#01A2A7" stroke="white" stroke-width="6"/>
</svg>
