<svg width="199" height="68" viewBox="0 0 199 68" fill="none" xmlns="http://www.w3.org/2000/svg">
<path d="M23.3359 42.9876C23.3359 42.3044 23.2308 41.6912 23.0206 41.1481C22.8279 40.5875 22.46 40.0794 21.9169 39.6239C21.3738 39.1509 20.6117 38.6866 19.6306 38.2311C18.6495 37.7756 17.3793 37.3026 15.8201 36.812C14.0857 36.2514 12.4388 35.6207 10.8796 34.9199C9.33788 34.2191 7.97136 33.4045 6.78003 32.4759C5.60623 31.5299 4.6777 30.4349 3.99444 29.191C3.3287 27.9472 2.99583 26.5018 2.99583 24.855C2.99583 23.2607 3.34622 21.8153 4.047 20.5189C4.74778 19.2049 5.72887 18.0837 6.99027 17.1552C8.25167 16.2091 9.74082 15.4821 11.4577 14.974C13.1922 14.4659 15.093 14.2119 17.1603 14.2119C19.981 14.2119 22.4424 14.72 24.5448 15.7361C26.6471 16.7522 28.2764 18.145 29.4327 19.9145C30.6065 21.6839 31.1934 23.7074 31.1934 25.985H23.3622C23.3622 24.8637 23.1257 23.8826 22.6527 23.0417C22.1972 22.1833 21.4964 21.5088 20.5503 21.0182C19.6218 20.5277 18.448 20.2824 17.0289 20.2824C15.6624 20.2824 14.5236 20.4926 13.6126 20.9131C12.7016 21.316 12.0184 21.8679 11.5628 22.5687C11.1073 23.2519 10.8796 24.0228 10.8796 24.8813C10.8796 25.5295 11.0373 26.1164 11.3526 26.642C11.6855 27.1675 12.176 27.6581 12.8243 28.1136C13.4725 28.5691 14.2696 28.9983 15.2157 29.4013C16.1617 29.8042 17.2567 30.1984 18.5006 30.5838C20.5854 31.2145 22.4162 31.9241 23.9929 32.7125C25.5872 33.5008 26.9187 34.3856 27.9874 35.3667C29.056 36.3477 29.8619 37.4602 30.405 38.7041C30.9481 39.948 31.2197 41.3583 31.2197 42.9351C31.2197 44.5994 30.8956 46.0886 30.2474 47.4025C29.5991 48.7165 28.6619 49.829 27.4355 50.74C26.2091 51.651 24.7463 52.343 23.0469 52.816C21.3475 53.2891 19.4466 53.5256 17.3443 53.5256C15.4522 53.5256 13.5863 53.2803 11.7468 52.7898C9.90726 52.2817 8.23415 51.5196 6.72748 50.5035C5.23832 49.4873 4.047 48.1909 3.1535 46.6142C2.26001 45.0374 1.81327 43.1716 1.81327 41.0167H9.72331C9.72331 42.208 9.90726 43.2154 10.2752 44.0388C10.6431 44.8622 11.1599 45.5279 11.8256 46.036C12.5089 46.5441 13.3148 46.912 14.2433 47.1397C15.1894 47.3675 16.223 47.4814 17.3443 47.4814C18.7108 47.4814 19.832 47.2887 20.708 46.9032C21.6015 46.5178 22.2585 45.9835 22.679 45.3002C23.1169 44.6169 23.3359 43.8461 23.3359 42.9876ZM34.8988 39.072V38.5202C34.8988 36.4353 35.1966 34.517 35.7923 32.765C36.3879 30.9955 37.2552 29.4626 38.3939 28.1662C39.5327 26.8697 40.9342 25.8623 42.5986 25.144C44.2629 24.4082 46.1726 24.0403 48.3275 24.0403C50.4824 24.0403 52.4007 24.4082 54.0826 25.144C55.7645 25.8623 57.1748 26.8697 58.3136 28.1662C59.4698 29.4626 60.3458 30.9955 60.9415 32.765C61.5371 34.517 61.835 36.4353 61.835 38.5202V39.072C61.835 41.1393 61.5371 43.0577 60.9415 44.8272C60.3458 46.5791 59.4698 48.1121 58.3136 49.426C57.1748 50.7225 55.7732 51.7298 54.1089 52.4481C52.4445 53.1664 50.5349 53.5256 48.38 53.5256C46.2251 53.5256 44.3067 53.1664 42.6249 52.4481C40.9605 51.7298 39.5502 50.7225 38.3939 49.426C37.2552 48.1121 36.3879 46.5791 35.7923 44.8272C35.1966 43.0577 34.8988 41.1393 34.8988 39.072ZM42.4672 38.5202V39.072C42.4672 40.2633 42.5723 41.3758 42.7825 42.4095C42.9928 43.4431 43.3256 44.3541 43.7812 45.1425C44.2542 45.9134 44.8674 46.5178 45.6207 46.9558C46.374 47.3938 47.2938 47.6128 48.38 47.6128C49.4312 47.6128 50.3334 47.3938 51.0868 46.9558C51.8401 46.5178 52.4445 45.9134 52.9 45.1425C53.3555 44.3541 53.6884 43.4431 53.8986 42.4095C54.1264 41.3758 54.2403 40.2633 54.2403 39.072V38.5202C54.2403 37.3639 54.1264 36.2777 53.8986 35.2615C53.6884 34.2279 53.3468 33.3169 52.8738 32.5285C52.4183 31.7226 51.8138 31.0919 51.0605 30.6364C50.3072 30.1809 49.3961 29.9531 48.3275 29.9531C47.2588 29.9531 46.3478 30.1809 45.5944 30.6364C44.8586 31.0919 44.2542 31.7226 43.7812 32.5285C43.3256 33.3169 42.9928 34.2279 42.7825 35.2615C42.5723 36.2777 42.4672 37.3639 42.4672 38.5202ZM74.0548 30.7678V53H66.4864V24.5659H73.608L74.0548 30.7678ZM82.6218 24.3819L82.4904 31.3985C82.1225 31.3459 81.6758 31.3021 81.1502 31.2671C80.6421 31.2145 80.1778 31.1883 79.7574 31.1883C78.6887 31.1883 77.7602 31.3284 76.9718 31.6087C76.2009 31.8715 75.5527 32.2657 75.0271 32.7913C74.5191 33.3169 74.1336 33.9563 73.8708 34.7097C73.6256 35.463 73.4854 36.3215 73.4504 37.285L71.9262 36.812C71.9262 34.9725 72.1101 33.2818 72.478 31.7401C72.846 30.1809 73.3803 28.8231 74.0811 27.6668C74.7994 26.5106 75.6753 25.6171 76.709 24.9864C77.7426 24.3557 78.9252 24.0403 80.2567 24.0403C80.6772 24.0403 81.1064 24.0754 81.5444 24.1454C81.9824 24.198 82.3415 24.2768 82.6218 24.3819ZM100.649 46.5879V33.9213C100.649 33.0103 100.5 32.2307 100.203 31.5824C99.9048 30.9167 99.4405 30.3999 98.8098 30.032C98.1966 29.6641 97.3995 29.4801 96.4184 29.4801C95.5775 29.4801 94.8504 29.629 94.2372 29.9269C93.624 30.2072 93.151 30.6189 92.8181 31.162C92.4853 31.6876 92.3188 32.3095 92.3188 33.0278H84.7504C84.7504 31.819 85.0307 30.6714 85.5914 29.5852C86.152 28.499 86.9666 27.5442 88.0353 26.7208C89.104 25.8799 90.3742 25.2229 91.8458 24.7499C93.335 24.2768 94.9993 24.0403 96.8389 24.0403C99.0463 24.0403 101.008 24.4082 102.725 25.144C104.442 25.8799 105.791 26.9836 106.772 28.4552C107.771 29.9269 108.27 31.7664 108.27 33.9739V46.1411C108.27 47.7004 108.367 48.9793 108.559 49.9779C108.752 50.959 109.032 51.8174 109.4 52.5533V53H101.753C101.385 52.2291 101.105 51.2656 100.912 50.1093C100.737 48.9355 100.649 47.7617 100.649 46.5879ZM101.648 35.682L101.701 39.9655H97.4696C96.471 39.9655 95.6037 40.0794 94.8679 40.3071C94.1321 40.5349 93.5277 40.859 93.0547 41.2795C92.5816 41.6824 92.2312 42.1554 92.0035 42.6986C91.7933 43.2417 91.6881 43.8373 91.6881 44.4855C91.6881 45.1338 91.8371 45.7207 92.1349 46.2462C92.4327 46.7543 92.8619 47.1573 93.4226 47.4551C93.9832 47.7354 94.6402 47.8756 95.3935 47.8756C96.5323 47.8756 97.5221 47.6478 98.3631 47.1923C99.204 46.7368 99.8522 46.1762 100.308 45.5104C100.781 44.8447 101.026 44.214 101.044 43.6183L103.041 46.8244C102.76 47.5427 102.375 48.2873 101.884 49.0581C101.411 49.829 100.807 50.556 100.071 51.2393C99.3354 51.905 98.4507 52.4569 97.417 52.8949C96.3834 53.3154 95.157 53.5256 93.7379 53.5256C91.9334 53.5256 90.2953 53.1664 88.8237 52.4481C87.3696 51.7123 86.2133 50.7049 85.3549 49.426C84.5139 48.1296 84.0935 46.658 84.0935 45.0111C84.0935 43.522 84.3738 42.1992 84.9344 41.043C85.495 39.8867 86.3184 38.9143 87.4046 38.126C88.5084 37.3201 89.8836 36.7157 91.5305 36.3127C93.1773 35.8922 95.0869 35.682 97.2593 35.682H101.648ZM130.135 21.281L119.728 53H111.345L125.562 14.7375H130.897L130.135 21.281ZM138.78 53L128.348 21.281L127.507 14.7375H132.894L147.19 53H138.78ZM138.307 38.7567V44.9323H118.099V38.7567H138.307ZM159.121 14.7375V53H151.263V14.7375H159.121ZM180.302 45.0111L189.315 14.7375H198.093L184.769 53H178.988L180.302 45.0111ZM171.997 14.7375L180.985 45.0111L182.351 53H176.517L163.273 14.7375H171.997Z" fill="white"/>
</svg>
